<svg width="19" height="18" viewBox="0 0 19 18" fill="none" xmlns="http://www.w3.org/2000/svg">
<path d="M2.29028 2.25L16.0314 15.75M6.87064 3.75C6.87064 3.15326 7.11193 2.58097 7.54142 2.15901C7.97091 1.73705 8.55343 1.5 9.16082 1.5C9.76821 1.5 10.3507 1.73705 10.7802 2.15901C11.2097 2.58097 11.451 3.15326 11.451 3.75V7.5C11.451 7.72211 11.4176 7.94301 11.3518 8.1555M9.82497 9.6555C9.48272 9.75739 9.12094 9.77912 8.76861 9.71895C8.41628 9.65878 8.08318 9.51838 7.79601 9.309C7.50883 9.09962 7.27555 8.82708 7.11486 8.5132C6.95417 8.19933 6.87053 7.85284 6.87064 7.5015V6.7515M3.81707 7.5C3.8169 8.44751 4.07774 9.3774 4.57192 10.1911C5.0661 11.0047 5.77521 11.6718 6.62404 12.1216C7.47287 12.5714 8.42978 12.7872 9.39329 12.7459C10.3568 12.7047 11.291 12.4081 12.0968 11.8875M13.6236 10.3875C14.1991 9.53076 14.5049 8.52647 14.503 7.5M6.10725 15.75H12.2144M9.16082 12.75V15.75" stroke="#B4B4B4" stroke-width="1.5" stroke-linecap="round" stroke-linejoin="round"/>
</svg>
