<svg width="19" height="18" viewBox="0 0 19 18" fill="none" xmlns="http://www.w3.org/2000/svg">
<path d="M3.81689 7.5C3.81689 8.89239 4.3799 10.2277 5.38204 11.2123C6.38419 12.1969 7.74339 12.75 9.16064 12.75M9.16064 12.75C10.5779 12.75 11.9371 12.1969 12.9392 11.2123C13.9414 10.2277 14.5044 8.89239 14.5044 7.5M9.16064 12.75V15.75M6.10707 15.75H12.2142M6.87047 3.75C6.87047 3.15326 7.11175 2.58097 7.54124 2.15901C7.97074 1.73705 8.55325 1.5 9.16064 1.5C9.76804 1.5 10.3506 1.73705 10.78 2.15901C11.2095 2.58097 11.4508 3.15326 11.4508 3.75V7.5C11.4508 8.09674 11.2095 8.66903 10.78 9.09099C10.3506 9.51295 9.76804 9.75 9.16064 9.75C8.55325 9.75 7.97074 9.51295 7.54124 9.09099C7.11175 8.66903 6.87047 8.09674 6.87047 7.5V3.75Z" stroke="#327179" stroke-width="1.5" stroke-linecap="round" stroke-linejoin="round"/>
</svg>
