<svg width="32" height="32" viewBox="0 0 32 32" fill="none" xmlns="http://www.w3.org/2000/svg">
<g clip-path="url(#clip0_22_34)">
<path d="M30.7492 10.0497C29.9443 8.091 28.7861 6.32873 27.321 4.8165C25.8502 3.30427 24.1419 2.1195 22.2309 1.29194C20.262 0.434617 18.1658 0 16.0058 0C13.8458 0 11.7553 0.434617 9.78067 1.29194C7.87552 2.1195 6.16142 3.31023 4.69055 4.8165C3.21969 6.32873 2.06732 8.08507 1.26239 10.0497C0.422729 12.0799 0 14.2352 0 16.4559C0 19.9269 1.03656 23.249 3.00543 26.0591C4.789 28.5954 7.2617 30.6137 10.0876 31.7746C11.0952 32.1021 12.1723 32.1795 12.9019 31.2626C13.7011 30.2088 13.2957 28.8633 12.2012 28.2322C11.8769 28.0298 11.5179 27.8631 11.1763 27.6964C9.24211 26.7855 7.56858 25.3863 6.28303 23.636C4.81216 21.5343 4.03619 19.0576 4.03619 16.4619C4.03619 13.8661 5.28122 10.0855 7.53965 7.76353C9.79802 5.44163 12.8035 4.1616 16 4.1616C19.1965 4.1616 22.202 5.44163 24.4604 7.76353C26.7188 10.0855 27.9638 13.1754 27.9638 16.4619C27.9638 19.7483 27.1878 21.5403 25.717 23.636C24.4372 25.3863 22.7579 26.7855 20.8237 27.6964C20.4763 27.8631 20.1231 28.0298 19.7988 28.2322C18.7101 28.8693 18.2989 30.2088 19.0981 31.2626C19.822 32.1795 20.9048 32.1021 21.9124 31.7746C24.7383 30.6196 27.211 28.5954 28.9946 26.0591C30.9635 23.249 32 19.9269 32 16.4559C32 12.9849 31.5773 12.0799 30.7434 10.0497H30.7492Z" fill="#0A0E1A"/>
</g>
<defs>
<clipPath id="clip0_22_34">
<rect width="32" height="32" fill="white"/>
</clipPath>
</defs>
</svg>
