<svg width="182" height="32" viewBox="0 0 182 32" fill="none" xmlns="http://www.w3.org/2000/svg">
<path d="M89.7809 10.2206C88.6608 9.50509 87.3846 9.13208 85.9212 9.13208C85.2054 9.13208 84.5208 9.25621 83.8668 9.47391C83.2134 9.6916 82.653 10.0029 82.1238 10.3765C81.6258 10.7495 81.2214 11.1543 80.8788 11.5897C80.8476 11.6209 80.8164 11.6833 80.7852 11.7145V10.9366C80.7852 10.5006 80.6298 10.1276 80.3184 9.81636C80.0382 9.50509 79.665 9.34977 79.2288 9.34977C78.762 9.34977 78.3888 9.50509 78.1086 9.81636C77.8284 10.1276 77.6724 10.5006 77.6724 10.9366V30.4132C77.6724 30.8798 77.8284 31.2534 78.1086 31.5335C78.3888 31.8448 78.762 32.0001 79.2288 32.0001C79.665 32.0001 80.0382 31.8448 80.3184 31.5335C80.6298 31.2534 80.7852 30.8798 80.7852 30.4132V23.6615C81.0966 24.0352 81.4704 24.377 81.906 24.7194C82.4352 25.1243 83.058 25.4349 83.7738 25.6838C84.4896 25.9327 85.2366 26.0574 86.0148 26.0574C87.4158 26.0574 88.692 25.6838 89.8121 24.9683C90.9329 24.2529 91.8359 23.2573 92.4893 21.9817C93.1427 20.7061 93.4853 19.2122 93.4853 17.5636C93.4853 15.9143 93.1427 14.4522 92.4893 13.2078C91.8359 11.9322 90.9329 10.9366 89.7809 10.2206ZM89.8433 20.4572C89.4389 21.2968 88.8473 21.9817 88.1316 22.4795C87.4158 22.9461 86.544 23.195 85.5792 23.195C84.5832 23.195 83.7114 22.9461 82.9644 22.4795C82.2486 21.9817 81.657 21.2968 81.252 20.4572C80.8476 19.5858 80.6298 18.6215 80.6298 17.5636C80.6298 16.4745 80.8476 15.5413 81.252 14.7011C81.657 13.8609 82.2486 13.2078 82.9644 12.7412C83.7114 12.2428 84.5832 11.9939 85.5792 11.9939C86.544 11.9939 87.4158 12.2428 88.1316 12.7412C88.8473 13.2078 89.4389 13.8921 89.8433 14.7323C90.2795 15.5725 90.4973 16.5057 90.4973 17.5636C90.4973 18.6215 90.2795 19.5858 89.8433 20.4572Z" fill="black" style="fill:black;fill-opacity:1;"/>
<path d="M55.4173 15.3541C54.7945 14.8564 54.0163 14.4522 53.1139 14.1409C52.2109 13.8296 51.2149 13.5496 50.0636 13.3007C49.1293 13.083 48.2887 12.8341 47.5729 12.554C46.8572 12.274 46.2656 11.9009 45.8612 11.4337C45.4562 10.9672 45.2696 10.407 45.2696 9.69155C45.2696 9.10022 45.4562 8.57126 45.7988 8.13587C46.1414 7.66929 46.6706 7.32684 47.3239 7.07795C47.978 6.79788 48.7874 6.67376 49.7209 6.67376C50.3125 6.67376 50.9035 6.76669 51.5263 6.95382C52.1797 7.14033 52.7713 7.38921 53.3317 7.66929C53.8921 7.94936 54.3277 8.26062 54.6703 8.60245C54.8881 8.75839 55.1371 8.85133 55.4173 8.85133C55.8217 8.85133 56.1643 8.69601 56.4445 8.38475C56.7559 8.0423 56.9113 7.70048 56.9113 7.32684C56.9113 6.82907 56.6623 6.36249 56.1643 5.9271C55.4485 5.2422 54.5455 4.71325 53.3941 4.30905C52.2421 3.90422 51.0283 3.68652 49.7209 3.68652C48.2887 3.68652 47.0125 3.9354 45.8612 4.43317C44.7092 4.93156 43.8068 5.64702 43.1528 6.54899C42.4994 7.45159 42.1568 8.54069 42.1568 9.8163C42.1568 10.7495 42.3128 11.5585 42.6236 12.274C42.935 12.9894 43.3706 13.5807 43.9622 14.1097C44.5538 14.6075 45.2384 15.0117 46.0478 15.3541C46.8884 15.6966 47.8219 15.9455 48.8491 16.132C49.9699 16.3497 50.9347 16.6297 51.7129 16.9722C52.5223 17.2834 53.1451 17.6877 53.5495 18.1854C53.9851 18.652 54.2035 19.2745 54.2035 20.0212C54.2035 20.6125 53.9851 21.1415 53.5807 21.608C53.1763 22.0746 52.6159 22.4171 51.8995 22.6971C51.2149 22.9772 50.4679 23.1013 49.6273 23.1013C48.476 23.1013 47.4488 22.9148 46.577 22.5412C45.7364 22.1682 44.8964 21.608 44.1182 20.8926C43.838 20.6749 43.5266 20.5501 43.184 20.5501C42.7484 20.5501 42.3746 20.7054 42.0944 21.0167C41.8148 21.328 41.6588 21.6704 41.6588 22.0746C41.6588 22.3235 41.7212 22.5724 41.8148 22.8213C41.939 23.039 42.1256 23.2573 42.3434 23.4126C43.4018 24.3769 44.5226 25.0618 45.6746 25.4661C46.826 25.8703 48.1646 26.0886 49.6585 26.0886C51.0595 26.0886 52.3357 25.8397 53.4871 25.3107C54.6391 24.7818 55.5727 24.0657 56.2885 23.1325C57.0049 22.1994 57.3469 21.1103 57.3469 19.8659C57.3469 18.7768 57.1915 17.8742 56.8489 17.1587C56.5069 16.4432 56.0395 15.8207 55.4173 15.3541Z" fill="black" style="fill:black;fill-opacity:1;"/>
<path d="M72.4135 9.41138C71.9467 9.41138 71.5735 9.56732 71.2933 9.87796C71.0131 10.158 70.8571 10.5317 70.8571 10.9983V19.1809C70.8571 20.5188 70.5463 21.5456 69.8923 22.1993C69.2389 22.8524 68.3047 23.1948 67.0597 23.1948C65.8459 23.1948 64.9123 22.8524 64.2583 22.1993C63.6355 21.5456 63.3247 20.5188 63.3247 19.1809V10.9983C63.3247 10.5317 63.1687 10.158 62.8573 9.87796C62.5777 9.56732 62.2039 9.41138 61.7683 9.41138C61.3009 9.41138 60.9277 9.56732 60.6475 9.87796C60.3673 10.158 60.2119 10.5317 60.2119 10.9983V19.1809C60.2119 21.3279 60.8029 23.0389 61.9861 24.2527C63.1999 25.466 64.8811 26.0573 67.0597 26.0573C69.2701 26.0573 70.9507 25.466 72.1645 24.2527C73.3789 23.0389 73.9699 21.3279 73.9699 19.1809V10.9983C73.9699 10.5317 73.8145 10.158 73.5031 9.87796C73.2229 9.56732 72.8497 9.41138 72.4135 9.41138Z" fill="black" style="fill:black;fill-opacity:1;"/>
<path d="M154.03 9.16308C153.594 9.16308 153.22 9.3184 152.909 9.62966C152.629 9.9403 152.473 10.3139 152.473 10.7493V11.3407C152.255 11.0918 152.006 10.8117 151.695 10.594C151.135 10.1274 150.481 9.75379 149.703 9.47372C148.956 9.19365 148.146 9.03833 147.244 9.03833C145.843 9.03833 144.598 9.41196 143.446 10.1274C142.326 10.8429 141.423 11.8696 140.769 13.1452C140.115 14.4208 139.773 15.8829 139.773 17.5634C139.773 19.2126 140.115 20.6747 140.769 21.9504C141.423 23.226 142.326 24.2527 143.477 24.9993C144.629 25.7148 145.905 26.0884 147.337 26.0884C148.146 26.0884 148.893 25.9637 149.61 25.6842C150.326 25.4042 150.917 25.0305 151.446 24.6263C151.851 24.2839 152.193 23.9102 152.473 23.5684V24.1903C152.473 24.6575 152.629 25.0305 152.909 25.3418C153.22 25.6219 153.594 25.7772 154.03 25.7772C154.497 25.7772 154.87 25.6219 155.15 25.3418C155.43 25.0305 155.586 24.6575 155.586 24.1903V10.7493C155.586 10.2827 155.43 9.90973 155.15 9.62966C154.87 9.3184 154.497 9.16308 154.03 9.16308ZM150.263 22.4793C149.516 22.9771 148.644 23.226 147.679 23.226C146.715 23.226 145.874 22.9771 145.127 22.4793C144.411 21.9815 143.82 21.2973 143.384 20.4571C142.979 19.5856 142.761 18.6213 142.761 17.5634C142.761 16.4743 142.979 15.5099 143.384 14.6697C143.82 13.8295 144.411 13.1452 145.127 12.6475C145.874 12.1497 146.715 11.9008 147.679 11.9008C148.644 11.9008 149.516 12.1497 150.263 12.6475C151.01 13.1452 151.602 13.8295 152.006 14.6697C152.411 15.5099 152.629 16.4743 152.629 17.5634C152.629 18.6213 152.411 19.5856 152.006 20.4571C151.602 21.2973 151.01 21.9815 150.263 22.4793Z" fill="black" style="fill:black;fill-opacity:1;"/>
<path d="M174.448 13.1454C173.794 11.8698 172.891 10.8431 171.74 10.1276C170.619 9.41153 169.343 9.03852 167.88 9.03852C167.164 9.03852 166.479 9.16265 165.825 9.41153C165.172 9.62985 164.611 9.94049 164.082 10.3453C163.584 10.7495 163.18 11.1543 162.837 11.5897C162.806 11.6209 162.775 11.6833 162.744 11.7139V4.34028C162.744 3.8737 162.588 3.50007 162.277 3.22C161.997 2.90936 161.623 2.75342 161.187 2.75342C160.72 2.75342 160.347 2.90936 160.067 3.22C159.787 3.50007 159.631 3.8737 159.631 4.34028V24.4394C159.631 24.906 159.787 25.2796 160.067 25.5597C160.347 25.8397 160.72 25.9951 161.187 25.9951C161.623 25.9951 161.997 25.8397 162.277 25.5597C162.588 25.2484 162.744 24.8754 162.744 24.4394V23.6615C163.055 24.0352 163.429 24.377 163.864 24.7195C164.394 25.1243 165.016 25.4349 165.732 25.715C166.448 25.9639 167.195 26.0886 167.973 26.0886C169.374 26.0886 170.65 25.715 171.771 24.9995C172.891 24.2529 173.794 23.2262 174.448 21.9505C175.102 20.6749 175.444 19.1816 175.444 17.5324C175.444 15.8831 175.132 14.3898 174.448 13.1454ZM171.802 20.4261C171.397 21.2968 170.806 21.9817 170.09 22.4795C169.374 22.9773 168.502 23.2262 167.538 23.2262C166.542 23.2262 165.67 22.9773 164.923 22.4795C164.207 21.9817 163.615 21.2968 163.211 20.4572C162.806 19.5858 162.588 18.6215 162.588 17.5324C162.588 16.4433 162.806 15.5101 163.211 14.6699C163.615 13.8297 164.207 13.1454 164.923 12.6476C165.67 12.1499 166.542 11.901 167.538 11.901C168.502 11.901 169.374 12.1499 170.09 12.6476C170.806 13.1454 171.397 13.8297 171.802 14.6699C172.238 15.5101 172.456 16.4433 172.456 17.5324C172.456 18.5903 172.238 19.5546 171.802 20.4261Z" fill="black" style="fill:black;fill-opacity:1;"/>
<path d="M136.006 12.4605C136.411 12.4605 136.753 12.3363 137.033 12.0563C137.313 11.7762 137.469 11.4649 137.469 11.0607C137.469 10.6559 137.313 10.3141 137.033 10.034C136.753 9.75393 136.411 9.59798 136.006 9.59798H133.516V7.14034C133.516 6.67376 133.36 6.30012 133.08 6.02005C132.8 5.70941 132.426 5.55347 131.96 5.55347C131.524 5.55347 131.15 5.70941 130.839 6.02005C130.559 6.30012 130.403 6.67376 130.403 7.14034V9.59798H128.691C128.286 9.59798 127.913 9.72274 127.633 10.0028C127.353 10.2829 127.228 10.6253 127.228 11.0295C127.228 11.4337 127.353 11.7762 127.633 12.0563C127.913 12.3363 128.286 12.4605 128.691 12.4605H130.403V21.7016C130.403 22.6972 130.559 23.475 130.839 24.0351C131.119 24.5641 131.493 24.9683 131.928 25.2172C132.395 25.4661 132.862 25.6214 133.329 25.6838C133.796 25.7461 134.232 25.7773 134.574 25.7773C135.197 25.7773 135.788 25.6214 136.317 25.3107C136.847 24.9995 137.127 24.5947 137.127 24.0969C137.127 23.6927 137.033 23.3814 136.815 23.1637C136.598 22.946 136.38 22.8213 136.131 22.8213C135.882 22.8213 135.664 22.8525 135.477 22.946C135.321 23.039 135.104 23.0702 134.886 23.0702C134.667 23.0702 134.418 23.039 134.201 22.946C133.983 22.8525 133.827 22.6971 133.703 22.4795C133.578 22.2611 133.516 21.9505 133.516 21.5769V12.4605H136.006Z" fill="black" style="fill:black;fill-opacity:1;"/>
<path d="M109.237 11.3407C108.521 10.6252 107.712 10.0651 106.809 9.66085C105.906 9.25603 104.942 9.03833 103.915 9.03833C102.576 9.03833 101.331 9.38078 100.148 10.0962C98.9651 10.7805 98.0003 11.776 97.2533 13.0828C96.5376 14.3585 96.1637 15.9141 96.1637 17.7499C96.1637 19.3679 96.5063 20.7989 97.1909 22.0751C97.9067 23.3195 98.8715 24.3151 100.148 25.0305C101.425 25.746 102.919 26.0884 104.63 26.0884C105.72 26.0884 106.747 25.8707 107.712 25.4659C108.708 25.0617 109.486 24.5639 110.046 24.035C110.513 23.6614 110.732 23.2572 110.732 22.7906C110.732 22.4481 110.607 22.1369 110.358 21.888C110.109 21.6079 109.797 21.4838 109.424 21.4838C109.113 21.4838 108.801 21.5767 108.49 21.7638C108.241 21.9815 107.961 22.1992 107.619 22.4169C107.276 22.6346 106.872 22.8523 106.373 23.0083C105.875 23.1636 105.253 23.226 104.475 23.226C103.51 23.226 102.607 23.0083 101.798 22.5417C100.988 22.0751 100.335 21.3902 99.8681 20.55C99.5255 19.9281 99.3077 19.2126 99.2141 18.4348H110.015C110.42 18.4348 110.793 18.31 111.105 18.03C111.416 17.7499 111.572 17.4081 111.603 17.0032C111.572 15.8524 111.354 14.8257 110.949 13.8607C110.544 12.8651 109.984 12.0249 109.237 11.3407ZM100.584 13.1764C101.051 12.741 101.549 12.4298 102.109 12.2433C102.701 12.0249 103.292 11.932 103.915 11.932C104.63 11.932 105.284 12.0873 105.938 12.3986C106.592 12.6786 107.121 13.114 107.556 13.6742C107.992 14.2031 108.241 14.8562 108.272 15.5723V15.79H99.3077C99.3701 15.4787 99.4319 15.1675 99.5255 14.9186C99.8057 14.172 100.148 13.6118 100.584 13.1764Z" fill="black" style="fill:black;fill-opacity:1;"/>
<path d="M124.926 9.47372C124.521 9.19365 124.054 9.03833 123.525 9.03833C122.871 9.03833 122.249 9.13189 121.657 9.34959C121.066 9.56728 120.537 9.84735 120.07 10.2204C119.603 10.594 119.167 11.0294 118.824 11.5272C118.669 11.776 118.514 12.0249 118.389 12.305V10.9982C118.389 10.5316 118.233 10.1586 117.922 9.87855C117.642 9.56729 117.268 9.41197 116.832 9.41197C116.366 9.41197 115.992 9.56729 115.712 9.87855C115.432 10.1586 115.276 10.5316 115.276 10.9982V24.1903C115.276 24.6575 115.432 25.0305 115.712 25.3418C115.992 25.6219 116.366 25.7772 116.832 25.7772C117.268 25.7772 117.642 25.6219 117.922 25.3418C118.233 25.0305 118.389 24.6575 118.389 24.1903V16.7232C118.389 15.9765 118.482 15.2922 118.7 14.7009C118.918 14.1096 119.229 13.5806 119.603 13.1452C119.976 12.6786 120.381 12.3362 120.848 12.1185C121.315 11.9008 121.751 11.776 122.186 11.776C122.591 11.776 122.933 11.8384 123.213 11.9944C123.494 12.1185 123.805 12.1809 124.116 12.1809C124.459 12.1809 124.801 12.0561 125.081 11.8072C125.361 11.5272 125.517 11.123 125.517 10.5628C125.517 10.1274 125.33 9.75379 124.926 9.47372Z" fill="black" style="fill:black;fill-opacity:1;"/>
<path d="M29.9834 9.40332C29.1983 7.57069 28.0688 5.92145 26.6403 4.50674C25.2062 3.09141 23.5406 1.98297 21.6772 1.20887C19.757 0.4067 17.7132 0 15.607 0C13.5008 0 11.4626 0.4067 9.53681 1.20887C7.679 1.98297 6.00778 3.09702 4.5737 4.50674C3.13962 5.92145 2.0157 7.56507 1.23095 9.40332C0.412191 11.3027 0 13.3194 0 15.3971C0 18.6445 1.01072 21.7527 2.93056 24.3825C4.6698 26.7553 7.08053 28.6435 9.83636 29.7301C10.8186 30.0364 11.8689 30.1087 12.5803 29.251C13.3598 28.2649 12.9647 27.0061 11.897 26.4154C11.5812 26.2264 11.2311 26.0704 10.8979 25.9145C9.01198 25.0618 7.38008 23.7531 6.12635 22.1151C4.69227 20.149 3.93592 17.8311 3.93592 15.4027C3.93592 12.9738 5.1497 9.43639 7.35199 7.2638C9.55366 5.09121 12.4842 3.89357 15.6014 3.89357C18.7185 3.89357 21.6491 5.09121 23.8508 7.2638C26.0531 9.43639 27.2668 12.3276 27.2668 15.4027C27.2668 18.4773 26.5105 20.154 25.0764 22.1151C23.8283 23.7531 22.1908 25.0618 20.3049 25.9145C19.966 26.0704 19.6215 26.2264 19.3058 26.4154C18.2443 27.0117 17.843 28.2649 18.6224 29.251C19.3282 30.1087 20.3841 30.0364 21.3664 29.7301C24.1222 28.6491 26.533 26.7553 28.2722 24.3825C30.1918 21.7527 31.2028 18.6445 31.2028 15.3971C31.2028 12.1492 30.7903 11.3027 29.9777 9.40332H29.9834Z" fill="black" style="fill:black;fill-opacity:1;"/>
<path d="M177.005 8.09346V4.92845H178.524C178.684 4.92845 178.839 4.96713 178.987 5.04448C179.139 5.1187 179.263 5.23036 179.36 5.37881C179.461 5.52478 179.511 5.70504 179.511 5.919C179.511 6.13357 179.459 6.31945 179.356 6.47664C179.256 6.63134 179.128 6.74985 178.97 6.83282C178.815 6.91578 178.655 6.95695 178.49 6.95695H177.314V6.52405H178.344C178.49 6.52405 178.62 6.47228 178.734 6.36936C178.851 6.26394 178.91 6.11361 178.91 5.919C178.91 5.71939 178.851 5.57593 178.734 5.49047C178.62 5.40439 178.494 5.36197 178.356 5.36197H177.559V8.09346H177.005ZM178.85 6.62261L179.639 8.09346H179.021L178.253 6.62261H178.85ZM178.168 9.98036C177.693 9.98036 177.248 9.89179 176.833 9.71464C176.418 9.53749 176.054 9.2911 175.74 8.97672C175.425 8.66234 175.178 8.29805 175.001 7.88325C174.824 7.46906 174.735 7.02432 174.735 6.54963C174.735 6.07494 174.824 5.63019 175.001 5.21601C175.178 4.8012 175.425 4.43692 175.74 4.12254C176.054 3.80816 176.418 3.56177 176.833 3.38462C177.248 3.20747 177.693 3.1189 178.168 3.1189C178.643 3.1189 179.088 3.20747 179.502 3.38462C179.917 3.56177 180.281 3.80816 180.596 4.12254C180.91 4.43692 181.157 4.8012 181.334 5.21601C181.511 5.63019 181.6 6.07494 181.6 6.54963C181.6 7.02432 181.511 7.46906 181.334 7.88325C181.157 8.29805 180.91 8.66234 180.596 8.97672C180.281 9.2911 179.917 9.53749 179.502 9.71464C179.088 9.89179 178.643 9.98036 178.168 9.98036ZM178.168 9.34162C178.683 9.34162 179.15 9.21562 179.571 8.96424C179.994 8.71224 180.331 8.37665 180.583 7.95623C180.835 7.53332 180.961 7.06424 180.961 6.54963C180.961 6.03502 180.835 5.56781 180.583 5.14739C180.331 4.72448 179.994 4.38702 179.571 4.13502C179.15 3.88364 178.683 3.75764 178.168 3.75764C177.653 3.75764 177.184 3.88364 176.76 4.13502C176.34 4.38702 176.004 4.72448 175.752 5.14739C175.5 5.56781 175.374 6.03502 175.374 6.54963C175.374 7.06424 175.5 7.53332 175.752 7.95623C176.004 8.37665 176.34 8.71224 176.76 8.96424C177.184 9.21562 177.653 9.34162 178.168 9.34162Z" fill="black" style="fill:black;fill-opacity:1;"/>
</svg>
